<svg xmlns="http://www.w3.org/2000/svg" xmlns:xlink="http://www.w3.org/1999/xlink" version="1.1" width="256" height="256" viewBox="0 0 256 256" xml:space="preserve">
<g style="stroke: none; stroke-width: 0; stroke-dasharray: none; stroke-linecap: butt; stroke-linejoin: miter; stroke-miterlimit: 10; fill: none; fill-rule: nonzero; opacity: 1;" transform="translate(1.4065934065934016 1.4065934065934016) scale(2.81 2.81)">
	<linearGradient id="SVGID_6" gradientUnits="userSpaceOnUse" x1="45.1715" y1="87.0176" x2="45.1715" y2="42.5805">
<stop offset="0%" style="stop-color:rgb(0,204,62);stop-opacity: 1"/>
<stop offset="100%" style="stop-color:rgb(1,237,94);stop-opacity: 1"/>
</linearGradient>
<path d="M 33.988 25.951 c -0.839 -1.856 -1.722 -1.894 -2.52 -1.926 l -2.146 -0.026 c -0.747 0 -1.96 0.279 -2.986 1.395 c -1.026 1.116 -3.919 3.812 -3.919 9.296 s 4.012 10.783 4.571 11.528 c 0.559 0.745 7.746 12.357 19.127 16.825 c 9.458 3.713 11.382 2.975 13.436 2.789 c 2.054 -0.186 6.625 -2.696 7.557 -5.299 c 0.932 -2.603 0.933 -4.833 0.653 -5.299 c -0.28 -0.466 -1.026 -0.743 -2.147 -1.301 c -1.121 -0.558 -6.625 -3.254 -7.651 -3.626 s -1.772 -0.557 -2.52 0.558 c -0.747 1.116 -2.891 3.625 -3.544 4.369 c -0.653 0.744 -1.306 0.837 -2.426 0.28 s -4.726 -1.735 -9.004 -5.532 c -3.328 -2.955 -5.575 -6.603 -6.229 -7.718 c -0.654 -1.115 -0.069 -1.719 0.492 -2.274 c 0.502 -0.5 1.119 -1.302 1.68 -1.952 c 0.561 -0.651 0.745 -1.116 1.118 -1.858 s 0.187 -1.395 -0.093 -1.952 S 34.983 28.156 33.988 25.951" style="stroke: none; stroke-width: 1; stroke-dasharray: none; stroke-linecap: butt; stroke-linejoin: miter; stroke-miterlimit: 10; fill: url(#SVGID_6); fill-rule: evenodd; opacity: 1;" transform=" matrix(1 0 0 1 0 0) " stroke-linecap="round"/>
	<linearGradient id="SVGID_7" gradientUnits="userSpaceOnUse" x1="74.9873" y1="87.0176" x2="74.9873" y2="42.5805">
<stop offset="0%" style="stop-color:rgb(0,204,62);stop-opacity: 1"/>
<stop offset="100%" style="stop-color:rgb(1,237,94);stop-opacity: 1"/>
</linearGradient>
<polygon points="90,11.33 78.83,11.33 78.83,0.21 71.15,0.21 71.15,11.33 59.98,11.33 59.98,18.98 71.15,18.98 71.15,30.1 78.83,30.1 78.83,18.98 90,18.98 " style="stroke: none; stroke-width: 1; stroke-dasharray: none; stroke-linecap: butt; stroke-linejoin: miter; stroke-miterlimit: 10; fill: url(#SVGID_7); fill-rule: nonzero; opacity: 1;" transform="  matrix(1 0 0 1 0 0) "/>
	<linearGradient id="SVGID_8" gradientUnits="userSpaceOnUse" x1="45" y1="87.0176" x2="45" y2="42.5805">
<stop offset="0%" style="stop-color:rgb(0,204,62);stop-opacity: 1"/>
<stop offset="100%" style="stop-color:rgb(1,237,94);stop-opacity: 1"/>
</linearGradient>
<path d="M 81.024 34.55 c 0.926 3.251 1.419 6.637 1.408 10.078 c 0 0 0 0 0 0 s 0 0 0 0 c -0.008 20.439 -16.716 37.068 -37.245 37.068 h -0.014 c -5.849 -0.003 -11.599 -1.372 -16.775 -3.977 c -0.739 -0.372 -1.467 -0.769 -2.182 -1.192 l -1.361 -0.803 l -14.097 3.68 l 3.763 -13.678 l -0.886 -1.402 c -3.73 -5.909 -5.704 -12.748 -5.694 -19.727 C 7.949 24.161 24.657 7.533 45.202 7.533 c 3.715 -0.009 7.373 0.539 10.863 1.597 V 1.32 C 52.551 0.452 48.905 0.002 45.189 0 C 20.488 0 0.387 20.005 0.376 44.595 C 0.367 52.421 2.43 60.111 6.358 66.891 L 0 90 l 23.755 -6.201 c 6.545 3.553 13.914 5.426 21.413 5.429 h 0.02 c 24.697 0 44.801 -20.009 44.812 -44.597 c 0.001 -3.438 -0.395 -6.813 -1.151 -10.081 H 81.024 z" style="stroke: none; stroke-width: 1; stroke-dasharray: none; stroke-linecap: butt; stroke-linejoin: miter; stroke-miterlimit: 10; fill: url(#SVGID_8); fill-rule: nonzero; opacity: 1;" transform=" matrix(1 0 0 1 0 0) " stroke-linecap="round"/>
</g>
</svg>